<svg width="165" height="44" viewBox="0 0 165 44" fill="none" xmlns="http://www.w3.org/2000/svg">
<g clip-path="url(#clip0_373_274472)">
<path d="M23.8376 42.4459C22.5292 42.5994 20.9537 42.614 19.7414 42.5031C17.9135 42.3381 17.3556 41.9777 16.6422 40.8117C15.5604 41.5113 14.5795 41.3234 13.2013 40.7316C7.94243 38.4784 2.44875 32.4772 1.535 24.361C1.45616 23.661 1.40705 23.177 1.40102 22.4378C1.38723 20.7966 1.59402 20.1146 2.64433 19.3142C1.98649 18.5033 1.7224 17.7588 2.34794 15.7564C4.65061 8.3912 11.1313 2.52864 19.237 1.57648C22.8919 1.14704 26.6831 1.80484 29.4868 3.12704C30.8292 3.76504 31.4853 4.37092 31.6421 5.6082C32.9699 5.38204 33.7462 5.6038 35.1661 6.86176C38.3791 9.709 40.961 14.5213 41.5395 19.6614C42.8096 30.9447 34.8818 41.1483 23.8376 42.4459Z" fill="#0A0F1E"/>
<path d="M23.8304 42.3746C22.5259 42.5277 20.9581 42.5431 19.748 42.4323C17.9123 42.2681 17.3764 41.9091 16.6651 40.7268C15.5894 41.444 14.6192 41.2627 13.2303 40.6661C7.97959 38.4137 2.5152 32.4315 1.60576 24.3527C1.52606 23.6447 1.47436 23.1867 1.47178 22.4277C1.45196 20.7843 1.66693 20.1265 2.73319 19.3261C2.06414 18.5187 1.77593 17.7931 2.41611 15.7771C4.68605 8.42157 11.1753 2.59598 19.2461 1.64778C22.874 1.22142 26.6642 1.87349 29.4559 3.19086C30.8086 3.83369 31.4544 4.43298 31.5948 5.68214C32.9308 5.44102 33.6972 5.64606 35.1201 6.9137C38.3297 9.74333 40.8943 14.5477 41.4707 19.6697C42.7364 30.9135 34.8362 41.0819 23.8304 42.3746ZM23.9992 43.8737C35.8202 42.4851 44.2977 31.5735 42.938 19.4973C42.3194 14.0003 39.5497 8.84046 36.1127 5.82689C34.8259 4.67013 33.7821 4.20198 32.6176 4.12806C32.1333 3.13014 31.2653 2.3883 30.1305 1.84622C27.0804 0.432055 23.2759 -0.344545 19.0772 0.148695C10.2728 1.18314 3.31004 7.57061 1.00564 15.3516C0.490824 17.0152 0.458944 18.2006 0.88803 19.0784C0.152639 19.8823 -0.046826 21.0452 0.00874844 22.6419C0.00530196 22.9799 0.0772471 23.9839 0.137991 24.5256C1.13661 33.3955 7.22308 39.7689 12.6414 42.0437C13.8123 42.5392 15.0052 42.863 16.2046 42.511C16.9598 43.3505 17.9537 43.7399 19.6265 43.9234C20.8776 44.0295 22.6129 44.0365 23.9988 43.8737H23.9992ZM23.5443 39.8345C33.2048 38.6997 40.1356 29.8263 39.0246 19.9571C38.9263 19.0823 38.7381 18.0483 38.5627 17.6906C38.4059 17.3703 38.1763 17.3289 38.0548 17.5815C37.7537 18.2076 37.0312 21.3303 33.7993 24.537L33.7084 24.4631C35.4704 20.6699 36.9761 14.0809 35.4178 11.1109C35.0585 10.3915 34.0599 9.23118 33.3319 8.64246C32.6038 8.05373 32.1553 7.94858 31.7861 7.94858C29.365 7.94285 24.1233 16.5655 21.6815 19.2513C20.4912 20.7834 19.1173 21.7888 16.6311 22.0809C15.4899 22.2151 14.0992 22.3361 12.6806 22.2077C12.6879 24.1054 13.0989 27.3904 13.6297 28.805C21.0512 28.6928 26.4105 26.0379 30.0267 18.9041L30.1176 18.9781C29.2228 26.8048 23.5964 30.7569 14.5003 31.4032C15.2568 33.7194 15.9819 35.0266 16.4519 35.8996C22.4513 35.9964 29.5506 33.3903 33.2444 28.7791L33.2944 28.8574C32.1997 34.1757 24.8587 37.5698 17.6879 38.0749C17.9981 38.6293 18.5952 39.5296 18.8816 39.8754C20.5635 40.1421 22.0765 40.0065 23.5439 39.8341L23.5443 39.8345ZM15.0354 38.7244C15.2077 38.7886 15.3348 38.8159 15.4067 38.7231C15.5149 38.5836 15.4192 38.4683 15.3193 38.3112C12.3519 33.5966 10.3486 28.6422 10.259 21.6062C9.64165 21.2568 9.04584 20.7359 8.65897 20.2329L8.69042 20.1449C10.4305 20.1938 13.3936 20.0987 15.676 19.8308C17.877 19.5721 18.7718 19.1976 20.0397 17.5036L23.2363 13.2462C19.7217 12.4775 14.6171 12.9932 10.9436 14.4795L10.9293 14.3545C14.3185 10.7074 20.0375 9.7825 24.723 11.0462C25.4037 10.1222 27.2402 8.09245 28.2156 7.21818C28.8885 6.59074 29.0371 6.44641 29.0044 6.15514C28.9764 5.90522 28.8807 5.78994 28.5718 5.61526C26.9826 4.7049 23.4853 3.72326 19.5317 4.1879C9.87127 5.32266 2.9809 14.1913 4.09196 24.0605C4.82304 30.5567 8.90496 36.3642 15.035 38.7239L15.0354 38.7244ZM135.161 4.06514H130.712L124.25 20.7997H128.275L129.511 17.5177H136.115L137.351 20.7997H141.624L135.161 4.06514ZM134.809 13.911H130.854L132.831 8.64554L134.809 13.911ZM113.021 23.2883H108.571L102.109 40.0228H106.135L107.371 36.7409H113.974L115.21 40.0228H119.483L113.021 23.2883ZM112.668 33.1337H108.713L110.69 27.8683L112.668 33.1337ZM91.9396 12.4326C91.9396 9.58361 90.1388 7.56402 87.6315 7.56402C85.1242 7.56402 83.3234 9.58361 83.3234 12.4326C83.3234 15.2816 85.1242 17.3012 87.6315 17.3012C90.1388 17.3012 91.9396 15.2816 91.9396 12.4326ZM96.0004 12.4326C96.0004 17.4455 92.3278 21.0522 87.6315 21.0522C82.9352 21.0522 79.2626 17.4455 79.2626 12.4326C79.2626 7.41969 82.9352 3.81302 87.6315 3.81302C92.3278 3.81302 96.0004 7.41969 96.0004 12.4326ZM74.2131 12.4326C74.2131 9.58361 72.4123 7.56402 69.905 7.56402C67.3977 7.56402 65.5969 9.58361 65.5969 12.4326C65.5969 15.2816 67.3977 17.3012 69.905 17.3012C72.4123 17.3012 74.2131 15.2816 74.2131 12.4326ZM78.2739 12.4326C78.2739 17.4455 74.6012 21.0522 69.905 21.0522C65.2087 21.0522 61.5361 17.4455 61.5361 12.4326C61.5361 7.41969 65.2087 3.81302 69.905 3.81302C74.6012 3.81302 78.2739 7.45577 78.2739 12.4326ZM60.1609 11.4228H52.8492V7.70789H60.4156L60.665 4.06514H48.8591V20.7997H52.8492V15.0651H59.9115L60.1609 11.4224V11.4228ZM165 4.06514H164.576L164.082 5.25534L163.587 4.06514H163.163V5.79609H163.516V4.75022L163.94 5.79609H164.188L164.647 4.75022V5.79609H165V4.06514ZM161.999 4.38985V5.79654H162.352V4.38985H162.881V4.06514H161.469V4.38985H161.998H161.999ZM160.657 33.9636C162.634 33.1342 164.047 31.4749 164.047 28.8424C164.047 25.2718 161.328 23.2883 157.973 23.2883H150.734V40.0228H154.724V34.4326H156.243L159.81 40.0228H164.542L160.658 33.964L160.657 33.9636ZM154.724 30.8259V26.8589H157.973C159.174 26.8589 159.951 27.7244 159.951 28.8424C159.951 29.9605 159.174 30.8259 157.973 30.8259H154.724ZM137.492 23.2883V40.0228H148.721V36.4522H141.482V33.4589H148.474V29.8522H141.482V26.8589H148.721V23.2883H137.492ZM135.762 30.4651H126.263V34.0718H131.525C130.712 35.6945 129.547 36.5244 127.252 36.5244C124.427 36.5244 122.767 34.2883 122.767 31.6558C122.767 29.0233 124.532 26.7872 127.252 26.7872C129.512 26.7872 130.854 28.0135 131.56 29.348L135.021 27.9052C134.173 25.8495 131.454 23.0366 127.252 23.0366C122.379 23.0366 118.706 26.8954 118.706 31.6562C118.706 36.417 122.52 40.2758 127.252 40.2758C132.619 40.2758 136.433 35.9119 135.762 30.466V30.4651ZM97.0598 23.2883V33.1703L89.9269 23.2883H86.0427V40.0228H90.0328V30.1409L97.2011 40.0228H101.05V23.2883H97.0598ZM78.5565 23.2883H74.1071L67.645 40.0228H71.6704L72.9064 36.7409H79.5099L80.7459 40.0228H85.0186L78.5565 23.2883ZM78.2032 33.1337H74.2484L76.2258 27.8683L78.2032 33.1337ZM164.541 20.7997V17.1569H158.291V4.06514H154.301V20.7997H164.541ZM152.994 20.7997V17.1569H146.744V4.06514H142.754V20.7997H152.994ZM119.13 20.7997C122.131 20.7997 124.144 19.0326 124.144 16.2553C124.144 14.4522 123.367 13.0095 121.849 12.2161C122.943 11.3146 123.473 10.1605 123.473 8.7177C123.473 5.90478 121.354 4.06514 118.423 4.06514H111.078V20.7997H119.129H119.13ZM118.035 10.7373H114.928V7.5275H118.035C118.988 7.5275 119.8 7.99653 119.8 9.11457C119.8 10.2326 118.988 10.7373 118.035 10.7373ZM118.424 17.3373H114.928V14.0914H118.424C119.412 14.0914 120.154 14.7043 120.154 15.7141C120.154 16.7961 119.342 17.3369 118.424 17.3369V17.3373ZM100.768 7.70789V20.7997H104.758V7.70789H109.56V4.06514H95.9651V7.70789H100.767H100.768ZM66.8329 40.0224H62.984L62.3154 29.7796L58.7113 40.0224H55.9218L52.2845 29.7796L51.6137 40.0224H47.7295L48.875 23.2879H53.5911L57.4046 33.9992L61.1122 23.2879H65.6869L66.8325 40.0224H66.8329Z" fill="white"/>
</g>
<defs>
<clipPath id="clip0_373_274472">
<rect width="165" height="44" fill="white"/>
</clipPath>
</defs>
</svg>
